<svg width="1280" height="720" viewBox="0 0 1280 720" xmlns="http://www.w3.org/2000/svg" style="background: black; font-family: 'Outfit', sans-serif;"><defs>
        <linearGradient id="headerGrad" x1="0%" y1="0%" x2="100%" y2="0%">
            <stop offset="0%" style="stop-color:white;stop-opacity:1" />
            <stop offset="100%" style="stop-color:white;stop-opacity:0.3" />
        </linearGradient>
        <filter id="bgBlur">
            <feGaussianBlur in="SourceGraphic" stdDeviation="10" />
        </filter>
        <filter id="glow">
            <feGaussianBlur stdDeviation="5" result="coloredBlur"/>
            <feMerge>
                <feMergeNode in="coloredBlur"/>
                <feMergeNode in="SourceGraphic"/>
            </feMerge>
        </filter>
    </defs><rect width="1280" height="720" fill="#050505" /><text x="100" y="80" fill="url(#headerGrad)" font-size="48" font-weight="800">TOS COMMAND CENTER</text><rect x="950" y="45" width="230" height="50" rx="15" fill="rgba(255,255,255,0.05)" stroke="rgba(255,255,255,0.1)" /><text x="970" y="70" fill="#9999cc" font-size="10">SYSTEM TIME</text><text x="970" y="85" fill="white" font-size="14" font-weight="700">20:13</text><text x="1060" y="70" fill="#ff9900" font-size="10">STARDATE</text><text x="1060" y="85" fill="white" font-size="14" font-weight="700">26-049 // 26-2013</text><rect x="100" y="140" width="320" height="420" rx="20" fill="rgba(30,30,50,0.6)" stroke="rgba(255,255,255,0.05)" /><path d="M 100 160, 100 140 a 20 20 0 0 1 20 -20 h 280 a 20 20 0 0 1 20 20 v 40 h -320 z" fill="#ff9900" /><text x="120" y="175" fill="black" font-size="12" font-weight="800">SECTOR</text><circle cx="150" cy="240" r="30" fill="rgba(0,0,0,0.2)" /><text x="150" y="255" fill="#ff9900" font-size="40" text-anchor="middle" filter="url(#glow)">⌨️</text><text x="120" y="310" fill="white" font-size="24" font-weight="800">ALPHA SECTOR</text><line x1="120" y1="380" x2="400" y2="380" stroke="rgba(255,255,255,0.1)" /><text x="120" y="400" fill="rgba(255,255,255,0.4)" font-size="10">USERS</text><text x="120" y="420" fill="#ff9900" font-size="18" font-weight="700">1</text><rect x="120" y="510" width="80" height="30" rx="5" fill="#ff9900" /><text x="160" y="530" fill="black" font-size="12" font-weight="800" text-anchor="middle">ENTER</text><rect x="210" y="510" width="80" height="30" rx="5" fill="rgba(255,255,255,0.1)" stroke="rgba(255,255,255,0.2)" /><text x="250" y="530" fill="white" font-size="12" font-weight="800" text-anchor="middle">SHARE</text><rect x="450" y="140" width="320" height="420" rx="20" fill="rgba(30,30,50,0.6)" stroke="rgba(255,255,255,0.05)" /><path d="M 450 160, 450 140 a 20 20 0 0 1 20 -20 h 280 a 20 20 0 0 1 20 20 v 40 h -320 z" fill="#9999cc" /><text x="470" y="175" fill="black" font-size="12" font-weight="800">SECTOR</text><circle cx="500" cy="240" r="30" fill="rgba(0,0,0,0.2)" /><text x="500" y="255" fill="#9999cc" font-size="40" text-anchor="middle" filter="url(#glow)">🔬</text><text x="470" y="310" fill="white" font-size="24" font-weight="800">SCIENCE LABS</text><line x1="470" y1="380" x2="750" y2="380" stroke="rgba(255,255,255,0.1)" /><text x="470" y="400" fill="rgba(255,255,255,0.4)" font-size="10">USERS</text><text x="470" y="420" fill="#9999cc" font-size="18" font-weight="700">3</text><rect x="470" y="510" width="80" height="30" rx="5" fill="#9999cc" /><text x="510" y="530" fill="black" font-size="12" font-weight="800" text-anchor="middle">ENTER</text><rect x="560" y="510" width="80" height="30" rx="5" fill="rgba(255,255,255,0.1)" stroke="rgba(255,255,255,0.2)" /><text x="600" y="530" fill="white" font-size="12" font-weight="800" text-anchor="middle">SHARE</text><rect x="800" y="140" width="320" height="420" rx="20" fill="rgba(30,30,50,0.6)" stroke="rgba(255,255,255,0.05)" /><path d="M 800 160, 800 140 a 20 20 0 0 1 20 -20 h 280 a 20 20 0 0 1 20 20 v 40 h -320 z" fill="#cc6666" /><text x="820" y="175" fill="black" font-size="12" font-weight="800">SECTOR</text><circle cx="850" cy="240" r="30" fill="rgba(0,0,0,0.2)" /><text x="850" y="255" fill="#cc6666" font-size="40" text-anchor="middle" filter="url(#glow)">⚙️</text><text x="820" y="310" fill="white" font-size="24" font-weight="800">ENGINEERING HUB</text><line x1="820" y1="380" x2="1100" y2="380" stroke="rgba(255,255,255,0.1)" /><text x="820" y="400" fill="rgba(255,255,255,0.4)" font-size="10">USERS</text><text x="820" y="420" fill="#cc6666" font-size="18" font-weight="700">0</text><rect x="820" y="510" width="80" height="30" rx="5" fill="#cc6666" /><text x="860" y="530" fill="black" font-size="12" font-weight="800" text-anchor="middle">ENTER</text><rect x="910" y="510" width="80" height="30" rx="5" fill="rgba(255,255,255,0.1)" stroke="rgba(255,255,255,0.2)" /><text x="950" y="530" fill="white" font-size="12" font-weight="800" text-anchor="middle">SHARE</text><rect x="100" y="590" width="320" height="420" rx="20" fill="rgba(20,40,30,0.3)" stroke="rgba(153,204,153,0.3)" stroke-dasharray="5,5" /><text x="260" y="790" fill="#99cc99" font-size="24" font-weight="800" text-anchor="middle">LINK NODE</text></svg>