<svg width="1280" height="720" viewBox="0 0 1280 720" xmlns="http://www.w3.org/2000/svg" style="background: black; font-family: 'Outfit', sans-serif;"><defs>
        <linearGradient id="headerGrad" x1="0%" y1="0%" x2="100%" y2="0%">
            <stop offset="0%" style="stop-color:white;stop-opacity:1" />
            <stop offset="100%" style="stop-color:white;stop-opacity:0.3" />
        </linearGradient>
        <filter id="bgBlur">
            <feGaussianBlur in="SourceGraphic" stdDeviation="10" />
        </filter>
        <filter id="glow">
            <feGaussianBlur stdDeviation="5" result="coloredBlur"/>
            <feMerge>
                <feMergeNode in="coloredBlur"/>
                <feMergeNode in="SourceGraphic"/>
            </feMerge>
        </filter>
    </defs><rect width="1280" height="720" fill="#050505" /><path d="M 0 100 h 150 a 30 30 0 0 1 30 30 v 400 a 30 30 0 0 1 -30 30 h -150 v -100 h 100 a 10 10 0 0 0 10 -10 v -260 a 10 10 0 0 0 -10 -10 h -100 z" fill="#9999cc" /><rect x="10" y="140" width="120" height="40" rx="20" fill="#444" /><text x="70" y="165" fill="black" text-anchor="middle" font-size="14">COMMAND</text><rect x="10" y="190" width="120" height="40" rx="20" fill="#9999cc" /><text x="70" y="215" fill="black" text-anchor="middle" font-size="14">DIRECTORY</text><rect x="10" y="240" width="120" height="40" rx="20" fill="#444" /><text x="70" y="265" fill="black" text-anchor="middle" font-size="14">ACTIVITY</text><rect x="200" y="100" width="1000" height="500" rx="10" fill="#080808" stroke="#333" stroke-width="1" /><text x="220" y="140" fill="#9999cc" font-size="24" font-weight="bold">SECTOR: ALPHA SECTOR</text><rect x="200" y="620" width="1000" height="60" rx="30" fill="#111" stroke="#ff9900" stroke-width="2" /><text x="240" y="658" fill="#ff9900" font-family="monospace" font-size="20">> _</text></svg>