<svg width="1280" height="720" viewBox="0 0 1280 720" xmlns="http://www.w3.org/2000/svg" style="background: black; font-family: sans-serif;"><rect width="1280" height="720" fill="black" /><text x="40" y="60" fill="#9999cc" font-size="36" font-weight="bold">TOS COMMAND CENTER</text><rect x="40" y="120" width="250" height="350" rx="15" fill="#111" stroke="#ff9900" stroke-width="2" /><path d="M 40 135, 40 120 a 15 15 0 0 1 15 -15 h 220 a 15 15 0 0 1 15 15 v 30 h -250 z" fill="#ff9900" /><text x="50" y="145" fill="black" font-size="14" font-weight="bold">SECTOR</text><text x="50" y="300" fill="white" font-size="18" font-weight="bold">ALPHA SECTOR</text><text x="50" y="330" fill="#aaa" font-size="12">LOCAL</text><rect x="320" y="120" width="250" height="350" rx="15" fill="#111" stroke="#9999cc" stroke-width="2" /><path d="M 320 135, 320 120 a 15 15 0 0 1 15 -15 h 220 a 15 15 0 0 1 15 15 v 30 h -250 z" fill="#9999cc" /><text x="330" y="145" fill="black" font-size="14" font-weight="bold">SECTOR</text><text x="330" y="300" fill="white" font-size="18" font-weight="bold">SCIENCE LABS</text><text x="330" y="330" fill="#aaa" font-size="12">LAB-SRV-01</text><rect x="600" y="120" width="250" height="350" rx="15" fill="#111" stroke="#cc6666" stroke-width="2" /><path d="M 600 135, 600 120 a 15 15 0 0 1 15 -15 h 220 a 15 15 0 0 1 15 15 v 30 h -250 z" fill="#cc6666" /><text x="610" y="145" fill="black" font-size="14" font-weight="bold">SECTOR</text><text x="610" y="300" fill="white" font-size="18" font-weight="bold">OBSERVATION HUB</text><text x="610" y="330" fill="#aaa" font-size="12">OBS-NODE-04</text></svg>